<svg width="1761" height="756" viewBox="0 0 1761 756" fill="none" xmlns="http://www.w3.org/2000/svg">
<path d="M355.433 440.622C372.997 355.191 391.404 269.93 407.808 184.26C433.807 184.215 459.807 184.181 485.817 184.146C482.755 297.903 481.093 411.694 478.031 525.45C458.566 528.431 439.134 531.593 419.726 534.915C423.095 452.066 426.112 369.206 429.265 286.357C412.133 371.845 393.965 457.117 377.232 542.685C357.869 546.439 338.54 550.375 319.245 554.47C308.169 468.345 295.409 382.447 281.828 296.686C279.119 386.03 276.467 475.375 273.678 564.708C255.908 568.86 238.185 573.228 220.506 577.756V184.84C253.837 184.704 287.167 184.579 320.497 184.476C332.04 269.873 343.833 355.225 355.433 440.622Z" fill="#E50914"/>
<path d="M583.19 324.465C611.25 323.35 639.31 322.485 667.37 321.575C667.677 335.135 667.996 348.695 668.315 362.255C640.13 363.483 611.99 365.121 583.851 366.987C584.306 397.826 584.67 428.655 584.864 459.494C620.505 455.717 656.135 452.669 691.913 450.553C692.061 467.787 692.14 485.021 692.163 502.255C635.576 506.18 579.218 511.788 522.973 519.091C524.646 407.439 524.157 295.775 525.818 184.123C579.832 184.101 633.835 184.101 687.849 184.101C687.871 201.335 687.951 218.569 688.099 235.803C652.811 236.156 617.534 236.212 582.246 236.235C582.428 265.653 582.758 295.059 583.19 324.476V324.465Z" fill="#E50914"/>
<path d="M726.643 184.101C759.87 184.101 793.098 184.101 826.326 184.101C851.905 185.057 877.938 189.22 897.153 207.433C913.238 222.676 920.523 246.428 920.546 268.201C920.865 316.503 921.423 364.804 921.741 413.116C921.98 434.696 914.98 458.368 898.997 473.475C880.056 491.392 854.261 495.567 829.07 496.795C796.217 497.319 763.411 498.388 730.604 499.981C730.41 394.665 726.825 289.406 726.643 184.09V184.101ZM789.797 235.121C790.389 305.593 792.085 376.043 792.677 446.504C804.391 446.219 816.104 446.014 827.817 445.889C837.641 445.776 845.371 443.341 851.017 438.666C856.663 434.002 859.44 425.868 859.349 414.8C858.894 365.156 858.086 315.513 857.619 265.869C857.528 254.812 854.614 246.667 848.854 242.026C843.094 237.385 835.251 235.007 825.313 235.019C813.475 235.041 801.636 235.076 789.786 235.121H789.797Z" fill="#E50914"/>
<path d="M960.388 184.101C981.254 184.101 1002.13 184.101 1023 184.101C1022.91 289.906 1023.84 395.722 1023.75 501.527C1003.02 500.298 982.278 499.263 961.527 498.421C961.629 393.64 960.263 288.882 960.377 184.101H960.388Z" fill="#E50914"/>
<path d="M1269.4 528.578C1248.65 525.336 1227.87 522.299 1207.05 519.455C1203.68 497.113 1200.19 474.806 1196.38 452.543C1171.04 449.518 1145.66 446.73 1120.27 444.205C1116.5 465.534 1112.95 486.887 1109.59 508.284C1090.6 506.453 1071.58 504.883 1052.56 503.472C1070.58 396.427 1097.37 291.191 1115.19 184.101C1145.56 184.101 1175.93 184.101 1206.31 184.123C1225.45 299.302 1250.91 413.275 1269.4 528.59V528.578ZM1128.09 401.717C1148.03 403.412 1167.96 405.232 1187.88 407.177C1177.99 354.064 1167.23 301.111 1157.68 247.929C1148.53 299.336 1138.08 350.47 1128.09 401.717Z" fill="#E50914"/>
<path d="M1502.34 184.818C1481.98 246.042 1461 307.026 1438.74 367.59C1462.55 437.278 1484.91 507.42 1506.72 577.756C1485.34 572.33 1463.93 567.131 1442.45 562.137C1426.54 509.547 1410.01 457.174 1392.56 405.062C1375.46 450.36 1358.08 495.555 1341.62 541.092C1322.42 537.531 1303.22 534.153 1283.97 530.934C1305.76 473.066 1329.85 416.142 1352.98 358.808C1331.45 300.622 1309.07 242.765 1288.64 184.181C1309.96 184.203 1331.27 184.249 1352.59 184.283C1367.59 230.047 1383.28 275.561 1398.75 321.166C1415.23 275.869 1430.93 230.309 1446.09 184.556C1464.84 184.624 1483.58 184.715 1502.33 184.806L1502.34 184.818Z" fill="#E50914"/>
</svg>
